<svg xmlns="http://www.w3.org/2000/svg" width="845.5" height="245.7" viewBox="0 0 845.5 245.7">
  <g id="Group_1" data-name="Group 1" transform="translate(-89 -389.7)">
    <path id="Fill-1" d="M0,40.3v80.5L87,80.5l63.6,29.4v13.4L87,93.9,0,134.2v33.5l87-40.2,87,40.2V87.2L87,47,23.4,76.4V63L87,33.6l87,40.2V40.3L87,0Z" transform="translate(89 396.3)" fill="#ef4f27"/>
    <path id="Fill-2-path" d="M120.106,119.1l-40.7-57,40.4-53.8c3.2-4.1,1.6-8.3-3.8-8.3h-21.2a8.842,8.842,0,0,0-7.4,3.5l-26.3,36.6h-.3L35.206,3.5a9.369,9.369,0,0,0-7.7-3.5H6.606c-4.8,0-7.1,4.5-3.8,8.6l40.4,53.8L1.506,119c-2.9,4.1-1.6,8.3,3.8,8.3h21.5a6.141,6.141,0,0,0,5.1-2.5l28.9-40.7h.3l28.2,39.5a8.824,8.824,0,0,0,6.7,3.8h20.2C121.406,127.4,123.006,123.2,120.106,119.1Z" transform="translate(810.394 431.2)"/>
    <path id="Subtraction_2" data-name="Subtraction 2" d="M576.4,645.6a66.077,66.077,0,0,1-26.431-5.291,60.2,60.2,0,0,1-20.319-14.384c-11.382-12.267-17.65-29-17.65-47.125a72.115,72.115,0,0,1,4.6-25.583,65.493,65.493,0,0,1,13.011-21.28,60.63,60.63,0,0,1,20.23-14.548A64.449,64.449,0,0,1,576.1,512c16.388,0,31.407,6.029,42.289,16.976a55.625,55.625,0,0,1,12.18,18.514,61.012,61.012,0,0,1,4.33,23.31,82.6,82.6,0,0,1-.6,8.6,5.862,5.862,0,0,1-5.8,5.4H541.3c.957,16.351,15.336,34,36.9,34,12.3,0,23.137-5.765,28.5-9.2l.145-.082c2.115-1.194,3.786-2.136,5.262-2.136A4.244,4.244,0,0,1,615.4,609.3l9,12.1c1.465,1.656,2.075,2.977,1.979,4.284-.1,1.323-.941,2.637-2.579,4.016a64.184,64.184,0,0,1-19.125,10.912A80.53,80.53,0,0,1,576.4,645.6Zm-.6-109.1c-16.988,0-30.74,11.9-32.7,28.3h62.2C604.28,549.2,591.046,536.5,575.8,536.5Z" transform="translate(157.6 -83.9)" stroke="rgba(0,0,0,0)" stroke-miterlimit="10" stroke-width="1"/>
    <path id="Fill-2-path-2" data-name="Fill-2-path" d="M87.1,140.9c-1.3-2.9-3.2-4.8-7.4-2.9-3.8,1.9-12.8,5.7-19.6,5.7-6.1,0-10.3-1.9-10.3-12.7V68H82.5a6.1,6.1,0,0,0,6.1-6V47.7a5.94,5.94,0,0,0-6.1-6.1H49.8V6A5.978,5.978,0,0,0,44,0L25.7.3a6.314,6.314,0,0,0-6.1,6V41.6H6.1A5.882,5.882,0,0,0,0,47.7V62a6.039,6.039,0,0,0,6.1,6H19.6v66.2c0,22.6,7.4,37.9,32.7,37.9,15.4,0,34.3-7.6,37.5-9.5,3.2-1.6,4.5-4.1,2.9-7.6Z" transform="translate(556.5 389.7)"/>
    <path id="Subtraction_1" data-name="Subtraction 1" d="M576.8,645.6a62.088,62.088,0,0,1-25.27-5.338,64.768,64.768,0,0,1-20.592-14.487A68.229,68.229,0,0,1,512,578.5a67.364,67.364,0,0,1,18.937-46.75,65.019,65.019,0,0,1,20.592-14.422,62.515,62.515,0,0,1,50.541.014,65.113,65.113,0,0,1,20.592,14.445,67.455,67.455,0,0,1,13.861,21.177A66.565,66.565,0,0,1,641.6,578.5a68.229,68.229,0,0,1-18.937,47.274,64.768,64.768,0,0,1-20.592,14.487A62.089,62.089,0,0,1,576.8,645.6Zm0-105.9c-19.961,0-36.2,17.406-36.2,38.8,0,21.946,16.239,39.8,36.2,39.8S613,600.446,613,578.5C613,557.106,596.761,539.7,576.8,539.7Z" transform="translate(-105.7 -83.9)"/>
    <path id="Fill-2-path-3" data-name="Fill-2-path" d="M50,52.4C37.5,47,29.5,43.5,29.5,35.2c0-4.8,3.5-9.5,14.4-9.5,12.2,0,26.3,6.7,26.3,6.7a6.732,6.732,0,0,0,8.3-2.5l5.8-10.8c1.9-3.2.3-7.3-2.6-9.2C75.3,5.8,61.8,0,43.9,0,13.1,0,0,19.1,0,35,0,56,16.7,68.1,36.6,76.7c17.6,8,24.7,12.1,24.7,20.7,0,7-6.1,10.8-15.7,10.8-15.7,0-29.8-8.3-29.8-8.3-3.2-1.9-6.7-1-8,1.6L1.1,113.9A5.382,5.382,0,0,0,3,120.6c6.7,5.4,20.8,13,42.3,13,28.5,0,47.4-17.5,47.4-37.2C92.6,72.5,73.4,62.6,50,52.4Z" transform="translate(292.6 428.2)"/>
    <path id="Fill-4-path" d="M36.6,25.5a13.108,13.108,0,0,0-5.2-4.2,60.488,60.488,0,0,0-7.7-2.7C21.6,17.9,20,17.4,19,17a8.774,8.774,0,0,1-2.7-1.6,3.408,3.408,0,0,1-1.1-2.5,2.851,2.851,0,0,1,1.2-2.4,6.569,6.569,0,0,1,3.4-.8,22.784,22.784,0,0,1,6.8,1.4,40.368,40.368,0,0,1,7.6,3.5l4.4-9.5a28.666,28.666,0,0,0-8.3-3.7A34.294,34.294,0,0,0,20.7,0a24.641,24.641,0,0,0-9.4,1.7A14.187,14.187,0,0,0,5,6.6,12.434,12.434,0,0,0,2.8,14a11.415,11.415,0,0,0,2.1,7.2,13.186,13.186,0,0,0,5.1,4,47.384,47.384,0,0,0,7.6,2.6q3,.9,4.8,1.5A7.781,7.781,0,0,1,25.2,31a3.631,3.631,0,0,1,1.1,2.6,3.271,3.271,0,0,1-1.5,2.9,8,8,0,0,1-4.1,1,21.356,21.356,0,0,1-8.2-1.9,29.327,29.327,0,0,1-8-5L0,39.9a30.524,30.524,0,0,0,9.5,5.4,32.931,32.931,0,0,0,11.1,2,23.811,23.811,0,0,0,9.1-1.6,15.191,15.191,0,0,0,6.5-4.8,12.5,12.5,0,0,0,2.4-7.8C38.6,30,38,27.4,36.6,25.5Z" transform="translate(895.9 587.6)" fill="#9b9b9b"/>
    <path id="Fill-4-path-2" data-name="Fill-4-path" d="M30.6,27.4,10.3,0H0V45.5H10.9V18.3L31.2,45.5H41.4V0H30.6Z" transform="translate(848.3 588.5)" fill="#9b9b9b"/>
    <path id="Subtraction_4" data-name="Subtraction 4" d="M536.2,559.2a26.639,26.639,0,0,1-6.45-.762,23.3,23.3,0,0,1-5.85-2.337,22.208,22.208,0,0,1-8.7-8.5,24.29,24.29,0,0,1,0-24.1,22.084,22.084,0,0,1,8.7-8.4,24.074,24.074,0,0,1,12.3-3.1,25.588,25.588,0,0,1,12.3,3.1,22.65,22.65,0,0,1,8.7,8.4,22.342,22.342,0,0,1,3.2,12,23.37,23.37,0,0,1-3.2,12.1,22.769,22.769,0,0,1-8.7,8.5A24.072,24.072,0,0,1,536.2,559.2Zm0-37.2a11.126,11.126,0,0,0-6.1,1.8,11.667,11.667,0,0,0-4.5,4.8,14.65,14.65,0,0,0,0,13.7,12.489,12.489,0,0,0,4.5,4.9,11.237,11.237,0,0,0,12.2,0,12.22,12.22,0,0,0,4.4-4.9,15.462,15.462,0,0,0,0-13.7,13.561,13.561,0,0,0-4.4-4.8A11.131,11.131,0,0,0,536.2,522Z" transform="translate(281.2 75.7)" fill="#9b9b9b" stroke="rgba(0,0,0,0)" stroke-miterlimit="10" stroke-width="1"/>
    <path id="Fill-4-path-3" data-name="Fill-4-path" d="M0,45.5H11.7V0H0Z" transform="translate(774.7 588.5)" fill="#9b9b9b"/>
    <path id="Fill-4-path-4" data-name="Fill-4-path" d="M0,9.8H13.3V45.5H25V9.8H38.3V0H0Z" transform="translate(730.7 588.5)" fill="#9b9b9b"/>
    <path id="Fill-4-path-5" data-name="Fill-4-path" d="M28.9,26.8a10.078,10.078,0,0,1-2.3,6.9,8,8,0,0,1-6.1,2.6,8.442,8.442,0,0,1-6.3-2.6,9.3,9.3,0,0,1-2.5-6.9V0H0V26.8A20.8,20.8,0,0,0,2.5,37.2a17.464,17.464,0,0,0,7.1,6.9,23.1,23.1,0,0,0,10.7,2.4A22.812,22.812,0,0,0,31,44.1a16.637,16.637,0,0,0,7-6.9,21.612,21.612,0,0,0,2.5-10.4V0H28.9Z" transform="translate(685.1 588.4)" fill="#9b9b9b"/>
    <path id="Fill-4-path-6" data-name="Fill-4-path" d="M11.7,0H0V45.6H30.6V35.5H11.7Z" transform="translate(649 588.4)" fill="#9b9b9b"/>
    <path id="Subtraction_3" data-name="Subtraction 3" d="M536.2,559.2a26.639,26.639,0,0,1-6.45-.762,23.3,23.3,0,0,1-5.85-2.337,22.208,22.208,0,0,1-8.7-8.5,22.535,22.535,0,0,1-3.2-12.1,23.185,23.185,0,0,1,3.2-12,22.084,22.084,0,0,1,8.7-8.4,24.074,24.074,0,0,1,12.3-3.1,25.588,25.588,0,0,1,12.3,3.1,22.071,22.071,0,0,1,8.7,8.4,24.283,24.283,0,0,1,0,24.1,22.769,22.769,0,0,1-8.7,8.5A24.072,24.072,0,0,1,536.2,559.2Zm0-37.2a11.126,11.126,0,0,0-6.1,1.8,11.667,11.667,0,0,0-4.5,4.8,13.169,13.169,0,0,0-1.7,6.8,14.34,14.34,0,0,0,1.7,6.9,12.489,12.489,0,0,0,4.5,4.9,10.946,10.946,0,0,0,6.1,1.8,11.13,11.13,0,0,0,6.1-1.8,12.22,12.22,0,0,0,4.4-4.9,15.462,15.462,0,0,0,0-13.7,13.561,13.561,0,0,0-4.4-4.8A11.131,11.131,0,0,0,536.2,522Z" transform="translate(81.9 75.7)" fill="#9b9b9b" stroke="rgba(0,0,0,0)" stroke-miterlimit="10" stroke-width="1"/>
    <path id="Fill-4-path-7" data-name="Fill-4-path" d="M31.4,21.3a60.488,60.488,0,0,0-7.7-2.7C21.6,17.9,20,17.4,19,17a8.774,8.774,0,0,1-2.7-1.6,3.408,3.408,0,0,1-1.1-2.5,2.851,2.851,0,0,1,1.2-2.4,6.569,6.569,0,0,1,3.4-.8,22.784,22.784,0,0,1,6.8,1.4,40.368,40.368,0,0,1,7.6,3.5l4.4-9.5a28.666,28.666,0,0,0-8.3-3.7A34.294,34.294,0,0,0,20.7,0a24.641,24.641,0,0,0-9.4,1.7A13.367,13.367,0,0,0,5.1,6.6,12.434,12.434,0,0,0,2.9,14,11.415,11.415,0,0,0,5,21.2a13.186,13.186,0,0,0,5.1,4,47.384,47.384,0,0,0,7.6,2.6c2,.6,3.6,1.1,4.7,1.5A7.781,7.781,0,0,1,25.2,31a3.631,3.631,0,0,1,1.1,2.6,3.271,3.271,0,0,1-1.5,2.9,7.12,7.12,0,0,1-4.1,1,21.356,21.356,0,0,1-8.2-1.9,29.327,29.327,0,0,1-8-5L0,39.9a29.428,29.428,0,0,0,9.5,5.4,33.375,33.375,0,0,0,11.1,2,23.811,23.811,0,0,0,9.1-1.6,15.191,15.191,0,0,0,6.5-4.8,12.5,12.5,0,0,0,2.4-7.8,11.444,11.444,0,0,0-2.2-7.4A11.093,11.093,0,0,0,31.4,21.3Z" transform="translate(551.1 587.6)" fill="#9b9b9b"/>
  </g>
</svg>
